# xmcd
# 
# Track frame offsets:
#     150
#     18187
#     35997
#     47255
#     61457
#     76987
#     99472
#     111767
#     122800
#     138689
#     158512
#     170677
# 
# Disc length: 2607
# 
# Revision: 1
# Processed by: cddbd v1.5.2PL0 Copyright (c) Steve Scherf et al.
# Submitted via: BonkEnc v1.0.6
# 
DISCID=9a0a2d0c
DTITLE=井上陽水 - 断絶
DYEAR=1996
DGENRE=Folk
TTITLE0=あこがれ
TTITLE1=断絶
TTITLE2=もしも明日が晴れなら
TTITLE3=感謝知らずの女
TTITLE4=小さな手
TTITLE5=人生が二度あれば
TTITLE6=愛は君
TTITLE7=ハトがないてる
TTITLE8=白い船
TTITLE9=限りない欲望
TTITLE10=家へお帰り
TTITLE11=傘がない
EXTD=YEAR: 1996
EXTT0=
EXTT1=
EXTT2=
EXTT3=
EXTT4=
EXTT5=
EXTT6=
EXTT7=
EXTT8=
EXTT9=
EXTT10=
EXTT11=
PLAYORDER=
